<?xml version="1.0" encoding="UTF-8"?>
<svg xmlns="http://www.w3.org/2000/svg" viewBox="0 0 760 460" font-family="'Helvetica Neue', Arial, sans-serif">
  <style>
    .n      { fill:#f7f3e6; stroke:#1f3b73; stroke-width:1.6; }
    .nC     { fill:#d6e2f2; stroke:#1f3b73; stroke-width:1.6; }
    .nLeaf  { fill:#d8e9d2; stroke:#3a6f2a; stroke-width:1.6; }
    .lbl    { font-size:14px; fill:#1d2e21; text-anchor:middle; }
    .lblb   { font-size:14px; fill:#1d2e21; text-anchor:middle; font-weight:700; }
    .edge   { stroke:#1f3b73; stroke-width:1.6; fill:none; }
    .title  { font-size:18px; font-weight:700; fill:#1d2e21; }
    .sub    { font-size:13px; fill:#444; font-style:italic; text-anchor:middle; }
  </style>
  <text x="20" y="30" class="title">pi as an EML witness tree (chunk 034)</text>
  <text x="380" y="56" class="sub">pi = sqrt( -( log( -1 ) )^2 ) — built bottom-up from constants e, -1, 1/2, 2</text>

  <!-- Root -->
  <ellipse class="n" cx="380" cy="100" rx="80" ry="26"/>
  <text x="380" y="98" class="lblb">sqrt</text>
  <text x="380" y="116" class="lbl">root: pi (real)</text>

  <line class="edge" x1="380" y1="126" x2="380" y2="160"/>

  <!-- pow level: -(log -1)^2 -->
  <ellipse class="n" cx="380" cy="180" rx="100" ry="26"/>
  <text x="380" y="178" class="lblb">x ^ 2  with x = log(-1) = i pi</text>
  <text x="380" y="196" class="lbl">witness via chunks 032 + 038</text>

  <line class="edge" x1="380" y1="206" x2="200" y2="240"/>
  <line class="edge" x1="380" y1="206" x2="560" y2="240"/>

  <!-- Left subtree: log(-1) -->
  <ellipse class="nC" cx="200" cy="260" rx="100" ry="26"/>
  <text x="200" y="258" class="lblb">log on C : (-1) -&gt; i pi</text>
  <text x="200" y="276" class="lbl">EMLTermC extension</text>

  <line class="edge" x1="200" y1="286" x2="200" y2="320"/>
  <ellipse class="nLeaf" cx="200" cy="340" rx="80" ry="22"/>
  <text x="200" y="346" class="lblb">-1 (chunk 031)</text>

  <!-- Right subtree: 2 -->
  <ellipse class="nLeaf" cx="560" cy="260" rx="80" ry="22"/>
  <text x="560" y="266" class="lblb">2 (chunk 032)</text>

  <!-- Below: 1/2 sub-witness used by sqrt -->
  <line class="edge" x1="380" y1="126" x2="540" y2="160" stroke-dasharray="5 5"/>
  <ellipse class="nLeaf" cx="600" cy="170" rx="78" ry="22"/>
  <text x="600" y="176" class="lblb">1/2 (chunk 033)</text>

  <text x="380" y="425" class="sub">Closed-form bridge: real-domain search budget exhausted at size 31 (3.8M trees enumerated, 3.1M unique signatures);</text>
  <text x="380" y="445" class="sub">Mathlib's complex log_neg_one closes the witness instead. Verified by lake env lean, exit 0.</text>
</svg>
