<?xml version="1.0" encoding="UTF-8"?>
<svg xmlns="http://www.w3.org/2000/svg" viewBox="0 0 760 460" font-family="'Helvetica Neue', Arial, sans-serif">
  <style>
    .node    { fill:#f7f3e6; stroke:#1f3b73; stroke-width:2; }
    .nodeOk  { fill:#d8e9d2; stroke:#3a6f2a; stroke-width:2; }
    .nodeBad { fill:#f4d6c5; stroke:#a32424; stroke-width:2; }
    .lbl     { font-size:14px; fill:#1d2e21; }
    .lblb    { font-size:15px; fill:#1d2e21; font-weight:700; }
    .arrow   { stroke:#1f3b73; stroke-width:2; fill:none; marker-end:url(#h); }
    .arrowB  { stroke:#a32424; stroke-width:2; fill:none; marker-end:url(#h2); stroke-dasharray:6 4; }
    .title   { font-size:18px; font-weight:700; fill:#1d2e21; }
  </style>
  <defs>
    <marker id="h" markerWidth="10" markerHeight="10" refX="9" refY="5" orient="auto">
      <path d="M 0,0 L 10,5 L 0,10 z" fill="#1f3b73"/>
    </marker>
    <marker id="h2" markerWidth="10" markerHeight="10" refX="9" refY="5" orient="auto">
      <path d="M 0,0 L 10,5 L 0,10 z" fill="#a32424"/>
    </marker>
  </defs>

  <text x="20" y="30" class="title">The spec-tightening cycle</text>

  <!-- Six nodes in a hexagonal layout around the centre -->
  <g>
    <ellipse class="node"    cx="380" cy="90"  rx="120" ry="34"/>
    <text x="380" y="86" text-anchor="middle" class="lblb">1. Write spec</text>
    <text x="380" y="106" text-anchor="middle" class="lbl">forall x : R, ...</text>

    <ellipse class="node"    cx="640" cy="180" rx="100" ry="34"/>
    <text x="640" y="178" text-anchor="middle" class="lblb">2. Submit</text>
    <text x="640" y="196" text-anchor="middle" class="lbl">to Aristotle</text>

    <ellipse class="nodeBad" cx="640" cy="320" rx="100" ry="34"/>
    <text x="640" y="316" text-anchor="middle" class="lblb">3. Fail</text>
    <text x="640" y="334" text-anchor="middle" class="lbl">COMPLETE_WITH_ERRORS</text>

    <ellipse class="node"    cx="380" cy="400" rx="130" ry="34"/>
    <text x="380" y="396" text-anchor="middle" class="lblb">4. Diagnose</text>
    <text x="380" y="414" text-anchor="middle" class="lbl">junk-value Real.log 0 = 0</text>

    <ellipse class="node"    cx="120" cy="320" rx="105" ry="34"/>
    <text x="120" y="316" text-anchor="middle" class="lblb">5. Tighten</text>
    <text x="120" y="334" text-anchor="middle" class="lbl">forall x &gt; 0, ...</text>

    <ellipse class="nodeOk"  cx="120" cy="180" rx="105" ry="34"/>
    <text x="120" y="178" text-anchor="middle" class="lblb">6. Resubmit</text>
    <text x="120" y="196" text-anchor="middle" class="lbl">exit 0</text>
  </g>

  <!-- arrows -->
  <path class="arrow"  d="M 480,110 Q 580,130 580,160"/>
  <path class="arrowB" d="M 640,214 L 640,286"/>
  <path class="arrow"  d="M 540,335 Q 480,380 480,395"/>
  <path class="arrow"  d="M 280,395 Q 200,380 175,340"/>
  <path class="arrow"  d="M 120,286 L 120,214"/>
  <path class="arrow"  d="M 175,160 Q 280,130 280,110"/>
</svg>
