<?xml version="1.0" encoding="UTF-8"?>
<svg xmlns="http://www.w3.org/2000/svg" viewBox="-25 0 985 380" font-family="'Helvetica Neue', Arial, sans-serif">
  <style>
    .axis  { stroke:#222; stroke-width:1.4; fill:none; }
    .tick  { stroke:#222; stroke-width:1; }
    .lbl   { font-size:13px; fill:#222; }
    .lblb  { font-size:14px; fill:#222; font-weight:700; }
    .stripe1 { fill:#1f3b73; opacity:.85; }
    .stripe2 { fill:#3b6cb8; opacity:.85; }
    .stripe3 { fill:#7da8d8; opacity:.85; }
    .gap     { fill:#cccccc; opacity:.55; }
    .annot   { font-size:12px; fill:#7a3a1a; font-style:italic; }
    .dot     { fill:#cc8a14; }
  </style>

  <!-- Title -->
  <text x="20" y="26" class="lblb" font-size="18">Five Aristotle waves over a 36-hour window</text>

  <!-- Axis -->
  <line class="axis" x1="60" y1="320" x2="900" y2="320"/>
  <line class="axis" x1="60" y1="60" x2="60" y2="320"/>

  <!-- Time ticks -->
  <g class="lbl" text-anchor="middle">
    <line class="tick" x1="60"  y1="320" x2="60"  y2="326"/>
    <text x="60"  y="345">00:00</text>
    <line class="tick" x1="200" y1="320" x2="200" y2="326"/>
    <text x="200" y="345">06:00</text>
    <line class="tick" x1="340" y1="320" x2="340" y2="326"/>
    <text x="340" y="345">12:00</text>
    <line class="tick" x1="480" y1="320" x2="480" y2="326"/>
    <text x="480" y="345">18:00</text>
    <line class="tick" x1="620" y1="320" x2="620" y2="326"/>
    <text x="620" y="345">24:00</text>
    <line class="tick" x1="760" y1="320" x2="760" y2="326"/>
    <text x="760" y="345">30:00</text>
    <line class="tick" x1="900" y1="320" x2="900" y2="326"/>
    <text x="900" y="345">36 h</text>
  </g>

  <!-- Wave rows -->
  <g class="lbl">
    <text x="55" y="92"  text-anchor="end">Wave 1 (5)</text>
    <text x="55" y="132" text-anchor="end">Wave 2 (12)</text>
    <text x="55" y="172" text-anchor="end">Wave 3 (15)</text>
    <text x="55" y="212" text-anchor="end">Wave 4 (4)</text>
    <text x="55" y="252" text-anchor="end">Wave 5 (6)</text>
    <text x="55" y="292" text-anchor="end">Manual</text>
  </g>

  <!-- Stripes -->
  <rect class="stripe1" x="60"  y="78"  width="65"  height="22"/>
  <rect class="stripe1" x="68"  y="118" width="115" height="22"/>
  <rect class="stripe2" x="80"  y="158" width="170" height="22"/>
  <rect class="gap"     x="250" y="158" width="125" height="22"/>
  <rect class="stripe2" x="375" y="158" width="55"  height="22"/>
  <rect class="stripe1" x="430" y="198" width="55"  height="22"/>
  <rect class="stripe3" x="465" y="238" width="170" height="22"/>
  <rect class="gap"     x="635" y="238" width="55"  height="22"/>
  <rect class="stripe2" x="690" y="238" width="60"  height="22"/>
  <rect class="stripe3" x="380" y="278" width="490" height="22"/>

  <!-- Annotations -->
  <circle class="dot" cx="250" cy="169" r="4"/>
  <text class="annot" x="258" y="155">COMPLETE_WITH_ERRORS (6/15)</text>

  <circle class="dot" cx="635" cy="249" r="4"/>
  <text class="annot" x="643" y="234">rate-limit stall ~6 h</text>

  <text class="annot" x="380" y="270">manual umbrella + bridge fixes</text>
</svg>
