<?xml version="1.0" encoding="UTF-8"?>
<svg xmlns="http://www.w3.org/2000/svg" viewBox="-30 0 1080 460" font-family="'Helvetica Neue', Arial, sans-serif">
  <style>
    .axis    { stroke:#222; stroke-width:1.6; fill:none; }
    .grid    { stroke:#dad6c8; stroke-width:1; }
    .tick    { stroke:#222; stroke-width:1.2; }
    .lbl     { font-size:14px; fill:#222; }
    .lblb    { font-size:15px; fill:#222; font-weight:700; }
    .stripe1 { fill:#1f3b73; opacity:.88; }   /* Aristotle dispatch */
    .manual  { fill:#a37438; opacity:.88; }   /* manual / human work */
    .gap     { fill:#cccccc; opacity:.6;  }   /* wait / rate-limit stall */
    .annot   { font-size:12px; fill:#7a3a1a; font-style:italic; }
    .startDot { fill:#3a6f2a; stroke:#1d2e21; stroke-width:1; }
    .endDot   { fill:#a32424; stroke:#1d2e21; stroke-width:1; }
    .gapDot   { fill:#cc8a14; stroke:#1d2e21; stroke-width:1; }
  </style>

  <!-- Title -->
  <text x="20" y="28" class="lblb" font-size="20">Five Aristotle waves over a 36-hour window</text>

  <!-- Subtitle / axis label -->
  <text x="510" y="430" text-anchor="middle" class="lbl" font-style="italic">elapsed time (hours)</text>

  <!-- Vertical gridlines every 6h -->
  <g>
    <line class="grid" x1="60"  y1="60" x2="60"  y2="370"/>
    <line class="grid" x1="200" y1="60" x2="200" y2="370"/>
    <line class="grid" x1="340" y1="60" x2="340" y2="370"/>
    <line class="grid" x1="480" y1="60" x2="480" y2="370"/>
    <line class="grid" x1="620" y1="60" x2="620" y2="370"/>
    <line class="grid" x1="760" y1="60" x2="760" y2="370"/>
    <line class="grid" x1="900" y1="60" x2="900" y2="370"/>
  </g>

  <!-- Axis -->
  <line class="axis" x1="60" y1="370" x2="900" y2="370"/>
  <line class="axis" x1="60" y1="60"  x2="60"  y2="370"/>

  <!-- Time ticks -->
  <g class="lbl" text-anchor="middle">
    <line class="tick" x1="60"  y1="370" x2="60"  y2="378"/>
    <text x="60"  y="395">00:00</text>
    <line class="tick" x1="200" y1="370" x2="200" y2="378"/>
    <text x="200" y="395">06:00</text>
    <line class="tick" x1="340" y1="370" x2="340" y2="378"/>
    <text x="340" y="395">12:00</text>
    <line class="tick" x1="480" y1="370" x2="480" y2="378"/>
    <text x="480" y="395">18:00</text>
    <line class="tick" x1="620" y1="370" x2="620" y2="378"/>
    <text x="620" y="395">24:00</text>
    <line class="tick" x1="760" y1="370" x2="760" y2="378"/>
    <text x="760" y="395">30:00</text>
    <line class="tick" x1="900" y1="370" x2="900" y2="378"/>
    <text x="900" y="395">36 h</text>
  </g>

  <!-- Wave labels -->
  <g class="lbl">
    <text x="55" y="103" text-anchor="end">Wave 1 (5)</text>
    <text x="55" y="143" text-anchor="end">Wave 2 (12)</text>
    <text x="55" y="183" text-anchor="end">Wave 3 (15)</text>
    <text x="55" y="223" text-anchor="end">Wave 4 (4)</text>
    <text x="55" y="263" text-anchor="end">Wave 5 (6)</text>
    <text x="55" y="303" text-anchor="end">Manual</text>
  </g>

  <!-- Wave 1 -->
  <rect class="stripe1" x="60"  y="92"  width="65"  height="22"/>
  <circle class="startDot" cx="60"  cy="103" r="5"/>
  <circle class="endDot"   cx="125" cy="103" r="5"/>

  <!-- Wave 2 -->
  <rect class="stripe1" x="68"  y="132" width="115" height="22"/>
  <circle class="startDot" cx="68"  cy="143" r="5"/>
  <circle class="endDot"   cx="183" cy="143" r="5"/>

  <!-- Wave 3 (with internal gap) -->
  <rect class="stripe1" x="80"  y="172" width="170" height="22"/>
  <rect class="gap"     x="250" y="172" width="125" height="22"/>
  <rect class="stripe1" x="375" y="172" width="55"  height="22"/>
  <circle class="startDot" cx="80"  cy="183" r="5"/>
  <circle class="gapDot"   cx="250" cy="183" r="5"/>
  <circle class="gapDot"   cx="375" cy="183" r="5"/>
  <circle class="endDot"   cx="430" cy="183" r="5"/>

  <!-- Wave 4 -->
  <rect class="stripe1" x="430" y="212" width="55"  height="22"/>
  <circle class="startDot" cx="430" cy="223" r="5"/>
  <circle class="endDot"   cx="485" cy="223" r="5"/>

  <!-- Wave 5 (with internal stall) -->
  <rect class="stripe1" x="465" y="252" width="170" height="22"/>
  <rect class="gap"     x="635" y="252" width="55"  height="22"/>
  <rect class="stripe1" x="690" y="252" width="60"  height="22"/>
  <circle class="startDot" cx="465" cy="263" r="5"/>
  <circle class="gapDot"   cx="635" cy="263" r="5"/>
  <circle class="gapDot"   cx="690" cy="263" r="5"/>
  <circle class="endDot"   cx="750" cy="263" r="5"/>

  <!-- Manual coverage band (human / bridge fixes) -->
  <rect class="manual" x="380" y="292" width="490" height="22"/>
  <circle class="startDot" cx="380" cy="303" r="5"/>
  <circle class="endDot"   cx="870" cy="303" r="5"/>

  <!-- Annotations -->
  <text class="annot" x="258" y="167">COMPLETE_WITH_ERRORS (6/15)</text>
  <text class="annot" x="643" y="247">rate-limit stall ~6 h</text>
  <text class="annot" x="380" y="287">manual umbrella + bridge fixes</text>

  <!-- Legend (right side) -->
  <g transform="translate(940,90)" font-size="12" fill="#1f2630">
    <text x="0" y="-4" font-weight="700">Legend</text>
    <rect class="stripe1" x="0" y="6"  width="14" height="10"/>
    <text x="18" y="15">Aristotle dispatch</text>
    <rect class="gap"     x="0" y="24" width="14" height="10"/>
    <text x="18" y="33">wait / stall</text>
    <rect class="manual"  x="0" y="42" width="14" height="10"/>
    <text x="18" y="51">manual / human</text>
    <circle class="startDot" cx="6" cy="68" r="5"/>
    <text x="18" y="72">wave start</text>
    <circle class="endDot"   cx="6" cy="88" r="5"/>
    <text x="18" y="92">wave end</text>
    <circle class="gapDot"   cx="6" cy="108" r="5"/>
    <text x="18" y="112">stall boundary</text>
  </g>
</svg>
