<?xml version="1.0" encoding="UTF-8"?>
<svg xmlns="http://www.w3.org/2000/svg" viewBox="0 0 1080 460" font-family="'Helvetica Neue', Arial, sans-serif">
  <style>
    .tile     { fill:#faf8f0; stroke:#1f3b73; stroke-width:1.8; }
    .tileGold { fill:#fff5d6; stroke:#a37438; stroke-width:1.8; }
    .tileGreen{ fill:#e3efd9; stroke:#3a6f2a; stroke-width:1.8; }
    .num      { font-size:48px; font-weight:700; text-anchor:middle; fill:#1f3b73; }
    .numG     { font-size:48px; font-weight:700; text-anchor:middle; fill:#3a6f2a; }
    .numW     { font-size:48px; font-weight:700; text-anchor:middle; fill:#a37438; }
    .lbl      { font-size:14px; fill:#1d2e21; text-anchor:middle; }
    .lblb     { font-size:15px; fill:#1d2e21; text-anchor:middle; font-weight:700; }
    .title    { font-size:22px; font-weight:700; fill:#1d2e21; }
    .meta     { font-size:12px; fill:#5a5650; font-style:italic; text-anchor:middle; }
  </style>

  <text x="540" y="36" text-anchor="middle" class="title">EML formalization — by the numbers</text>

  <!-- Row 1: 4 tiles -->
  <g transform="translate(40,70)">
    <rect class="tileGreen" width="220" height="150" rx="8"/>
    <text x="110" y="78"  class="numG">100</text>
    <text x="110" y="108" class="lblb">public theorems</text>
    <text x="110" y="128" class="lbl">61 paper claims + 39 frontier</text>
  </g>
  <g transform="translate(290,70)">
    <rect class="tile" width="220" height="150" rx="8"/>
    <text x="110" y="78"  class="num">8 062</text>
    <text x="110" y="108" class="lblb">lake build jobs</text>
    <text x="110" y="128" class="lbl">sorry-free, axiom-clean</text>
  </g>
  <g transform="translate(540,70)">
    <rect class="tile" width="220" height="150" rx="8"/>
    <text x="110" y="78"  class="num">36 / 36</text>
    <text x="110" y="108" class="lblb">paper primitives sealed</text>
    <text x="110" y="128" class="lbl">+ 3 §G boundary points</text>
  </g>
  <g transform="translate(790,70)">
    <rect class="tileGold" width="220" height="150" rx="8"/>
    <text x="110" y="78"  class="numW">134</text>
    <text x="110" y="108" class="lblb">git commits</text>
    <text x="110" y="128" class="lbl">replayable audit trail</text>
  </g>

  <!-- Row 2: 4 tiles -->
  <g transform="translate(40,240)">
    <rect class="tile" width="220" height="150" rx="8"/>
    <text x="110" y="78"  class="num">44</text>
    <text x="110" y="108" class="lblb">rfl-checked K-counts</text>
    <text x="110" y="128" class="lbl">machine-verified Table 4</text>
  </g>
  <g transform="translate(290,240)">
    <rect class="tile" width="220" height="150" rx="8"/>
    <text x="110" y="78"  class="num">3.8 M</text>
    <text x="110" y="108" class="lblb">trees enumerated</text>
    <text x="110" y="128" class="lbl">Mathematica search, size ≤ 31</text>
  </g>
  <g transform="translate(540,240)">
    <rect class="tile" width="220" height="150" rx="8"/>
    <text x="110" y="78"  class="num">6</text>
    <text x="110" y="98"  class="lblb">tools cooperated</text>
    <text x="110" y="118" class="lbl">Aristotle · Claude · GPT Pro</text>
    <text x="110" y="135" class="lbl">Codex · Mathematica · Lean</text>
  </g>
  <g transform="translate(790,240)">
    <rect class="tileGreen" width="220" height="150" rx="8"/>
    <text x="110" y="78"  class="numG">1</text>
    <text x="110" y="108" class="lblb">human in charge</text>
    <text x="110" y="128" class="lbl">scope, taste, sign-off</text>
  </g>

  <text x="540" y="430" class="meta">Numbers as of 2026-05-13 (post-frontier sprint + pre-announcement seal).</text>
</svg>
